<svg xmlns="http://www.w3.org/2000/svg"><g clip-path="url(#clip0)"><path d="M19.198 49.602a3.2 3.2 0 100 6.4 3.2 3.2 0 000-6.4zm0 4.266a1.067 1.067 0 110-2.134 1.067 1.067 0 010 2.134zm30.929-4.266a3.2 3.2 0 100 6.399 3.2 3.2 0 000-6.4zm0 4.266a1.067 1.067 0 110-2.134 1.067 1.067 0 010 2.134zM3.2 21.872h2.133v2.133H3.2v-2.133zM0 26.138h2.133v2.133H0v-2.133zm52.26-14.932h6.4v2.133h-6.4v-2.133zm-4.266 0h2.133v2.133h-2.133v-2.133zM34.13 4.807h10.665V6.94H34.129V4.807zm-4.267 0h2.133V6.94h-2.133V4.807z"/><path d="M63.992 59.2v-2.133h-9.108a6.373 6.373 0 001.611-3.626l6.964-3.98c.05-.034.097-.072.14-.114a.982.982 0 00.107-.084c.08-.085.145-.183.194-.29.005-.01.012-.016.017-.025.048-.12.075-.25.077-.38 0-.012.006-.021.006-.033v-9.599a.82.82 0 00-.02-.093.773.773 0 000-.083l-2.133-12.798a.492.492 0 00-.016-.047v-.036l-1.067-4.266a1.067 1.067 0 00-1.038-.808H46.79a3.179 3.179 0 00-.799-1.38l-7.282-7.282a3.178 3.178 0 00-2.262-.937h-25.78c-.59 0-1.067.478-1.067 1.067v4.266H0v2.133h9.599v3.2H7.466v2.133h2.133v2.133H4.266v2.133H9.6v9.599c-.59 0-1.067.477-1.067 1.066v9.599c0 .022.012.042.013.065.007.096.026.192.058.283.01.034.022.067.035.1.05.112.119.214.204.302l3.976 3.976a6.365 6.365 0 001.623 3.806H0V59.2h63.992zm-19.89-8.532H25.224a6.344 6.344 0 00-.493-1.066h19.863c-.197.34-.362.696-.492 1.066zm-18.505 2.133h18.131a6.36 6.36 0 001.643 4.266H23.954a6.368 6.368 0 001.643-4.266zm20.264 0a4.266 4.266 0 118.533 0 4.266 4.266 0 01-8.533 0zm10.429-1.706a6.327 6.327 0 00-.63-1.493h3.25l-2.62 1.493zm5.376-13.225H51.194V27.204h8.695l1.777 10.666zm-2.24-12.799h-9.299c-.589 0-1.066.478-1.066 1.067v12.798c0 .59.477 1.067 1.066 1.067H61.86v2.133h-3.2v2.133h3.2v3.2h-8.201a6.375 6.375 0 00-7.06 0h-23.87a6.376 6.376 0 00-7.06 0h-5.003v-4.267h4.267V41.07h-4.267v-1.066h35.196c.59 0 1.067-.478 1.067-1.067V22.938h11.966l.533 2.133zm-47.694 3.2h8.532v-2.133h-8.532v-2.133h9.599v-2.133h-9.599v-3.2h5.333v-2.133h-5.333v-3.2h24.714c.282.001.553.114.754.313l7.282 7.282c.2.2.313.472.313.755v16.18H11.732v-9.598zm1.933 21.33a6.31 6.31 0 00-.475 1.017l-1.016-1.016h1.49zm1.267 3.2a4.266 4.266 0 118.532 0 4.266 4.266 0 01-8.532 0z"/></g><defs><clipPath id="clip0"><path fill="#fff" d="M0 0h64v64H0z"/></clipPath></defs></svg>