<svg xmlns="http://www.w3.org/2000/svg"><path d="M45.32 21.57l-.684-2.254a4.896 4.896 0 00-9.272 0l-.684 2.254a12.66 12.66 0 00-.354 5.867 5.518 5.518 0 002.842 3.845l-.767 17.145a3.378 3.378 0 00.853 2.626 3.726 3.726 0 005.5 0 3.337 3.337 0 00.854-2.555l-.772-17.218a5.516 5.516 0 002.838-3.843 12.66 12.66 0 00-.353-5.867zm-1.748 5.496a3.382 3.382 0 01-2.213 2.548 1.065 1.065 0 00-.69 1.046l.81 18.007a1.23 1.23 0 01-.32.966 1.648 1.648 0 01-2.319 0 1.28 1.28 0 01-.313-1.037l.804-17.936a1.066 1.066 0 00-.69-1.046 3.382 3.382 0 01-2.213-2.548 10.518 10.518 0 01.293-4.87l.685-2.256a2.766 2.766 0 015.188 0l.685 2.255c.477 1.578.578 3.247.293 4.87zM28.8 16c-.59 0-1.067.478-1.067 1.067v9.158l-2.887 2.887a1.067 1.067 0 00-.313.808l.934 18.667c.022.402-.124.796-.403 1.087a1.502 1.502 0 01-2.125.009l-.009-.01a1.453 1.453 0 01-.403-1.086l.94-18.667a1.067 1.067 0 00-.312-.808l-2.888-2.887v-9.158a1.067 1.067 0 00-2.134 0v9.6c0 .283.113.554.313.754l2.865 2.866-.91 18.196a3.603 3.603 0 107.198 0l-.91-18.196 2.865-2.866c.2-.2.313-.471.313-.754v-9.6c0-.59-.478-1.067-1.067-1.067z"/><path d="M22.4 16c-.59 0-1.067.478-1.067 1.067V25.6a1.067 1.067 0 002.134 0v-8.533c0-.59-.478-1.067-1.067-1.067zm3.2 0c-.59 0-1.067.478-1.067 1.067V25.6a1.067 1.067 0 002.134 0v-8.533c0-.59-.478-1.067-1.067-1.067z"/><path d="M32 0C14.327 0 0 14.327 0 32c0 17.673 14.327 32 32 32 17.673 0 32-14.327 32-32C63.98 14.335 49.665.02 32 0zm0 61.867C15.505 61.867 2.133 48.495 2.133 32S15.505 2.133 32 2.133 61.867 15.505 61.867 32C61.847 48.487 48.487 61.848 32 61.867z"/><path d="M35.462 52.023a1.067 1.067 0 00-1.206-.953l.004-.001a19.595 19.595 0 01-4.52 0 1.067 1.067 0 10-.249 2.12 21.67 21.67 0 005.014 0 1.066 1.066 0 00.957-1.166zM48.32 18.255a1.067 1.067 0 00-1.503-.132l-.004.004a1.067 1.067 0 00-.128 1.503c6.431 7.635 5.94 18.924-1.132 25.97a1.067 1.067 0 001.506 1.511c7.858-7.828 8.406-20.372 1.261-28.856zM24.851 14.1h-.004.004zm12.181-2.837c-4.17-1-8.541-.73-12.556.771a1.067 1.067 0 00.748 1.996 19.378 19.378 0 0111.306-.693 1.067 1.067 0 10.502-2.074zM18.399 45.547A19.076 19.076 0 0112.8 32a19.058 19.058 0 013.67-11.294 1.067 1.067 0 10-1.723-1.256c-6.167 8.478-5.26 20.18 2.14 27.607a1.068 1.068 0 101.512-1.51z"/></svg>