<svg height="512" width="512" xmlns="http://www.w3.org/2000/svg"><linearGradient id="a" gradientUnits="userSpaceOnUse" x1="256" x2="256" y1="512" y2="0"><stop offset="0" stop-color="#fd5900"/><stop offset="1" stop-color="#ffde00"/></linearGradient><path d="M256 121c-74.439 0-135 60.561-135 135s60.561 135 135 135 135-60.561 135-135-60.561-135-135-135zm0 240c-57.897 0-105-47.103-105-105s47.103-105 105-105 105 47.103 105 105-47.103 105-105 105zm0-300c8.284 0 15-6.716 15-15V15c0-8.284-6.716-15-15-15s-15 6.716-15 15v31c0 8.284 6.716 15 15 15zm0 390c-8.284 0-15 6.716-15 15v31c0 8.284 6.716 15 15 15s15-6.716 15-15v-31c0-8.284-6.716-15-15-15zM138.01 81.635c4.155 7.197 13.337 9.62 20.49 5.49 7.174-4.142 9.632-13.316 5.49-20.49l-15-25.981c-4.142-7.174-13.316-9.632-20.49-5.49s-9.632 13.316-5.49 20.49zm235.98 348.73c-4.142-7.174-13.316-9.632-20.49-5.49s-9.632 13.316-5.49 20.49l15 25.981c4.155 7.197 13.337 9.62 20.49 5.49 7.174-4.142 9.632-13.316 5.49-20.49zM81.635 138.01l-25.981-15c-7.175-4.142-16.349-1.684-20.49 5.49-4.142 7.175-1.684 16.348 5.49 20.49l25.981 15c7.15 4.128 16.335 1.708 20.49-5.49 4.142-7.175 1.684-16.348-5.49-20.49zm389.711 225l-25.981-15c-7.175-4.142-16.349-1.684-20.49 5.49-4.142 7.175-1.684 16.348 5.49 20.49l25.981 15c7.15 4.128 16.335 1.708 20.49-5.49 4.143-7.175 1.685-16.348-5.49-20.49zm-404.711-15l-25.981 15c-7.174 4.142-9.632 13.316-5.49 20.49 4.163 7.21 13.35 9.613 20.49 5.49l25.981-15c7.174-4.142 9.632-13.316 5.49-20.49-4.141-7.174-13.316-9.632-20.49-5.49zm378.73-184.02l25.981-15c7.174-4.142 9.632-13.316 5.49-20.49s-13.315-9.633-20.49-5.49l-25.981 15c-7.174 4.142-9.632 13.316-5.49 20.49 4.163 7.21 13.35 9.613 20.49 5.49zM158.5 424.875c-7.176-4.142-16.349-1.684-20.49 5.49l-15 25.981c-4.142 7.174-1.684 16.348 5.49 20.49 7.15 4.128 16.335 1.708 20.49-5.49l15-25.981c4.142-7.174 1.684-16.348-5.49-20.49zm195-337.75c7.15 4.128 16.335 1.708 20.49-5.49l15-25.981c4.142-7.174 1.684-16.348-5.49-20.49s-16.349-1.684-20.49 5.49l-15 25.981c-4.142 7.174-1.684 16.348 5.49 20.49zM61 256c0-8.284-6.716-15-15-15H15c-8.284 0-15 6.716-15 15s6.716 15 15 15h31c8.284 0 15-6.716 15-15zm436-15h-31c-8.284 0-15 6.716-15 15s6.716 15 15 15h31c8.284 0 15-6.716 15-15s-6.716-15-15-15z" fill="url(#a)"/></svg>